<?xml version="1.0" encoding="utf-8"?>
<!-- Generator: Adobe Illustrator 16.0.0, SVG Export Plug-In . SVG Version: 6.00 Build 0)  -->
<!DOCTYPE svg PUBLIC "-//W3C//DTD SVG 1.1//EN" "http://www.w3.org/Graphics/SVG/1.1/DTD/svg11.dtd">
<svg version="1.1" id="Layer_1" xmlns="http://www.w3.org/2000/svg" xmlns:xlink="http://www.w3.org/1999/xlink" x="0px" y="0px"
	 width="300px" height="150px" viewBox="0 0 300 150" enable-background="new 0 0 300 150" xml:space="preserve">
<g>
	<path fill="#2981BA" d="M55.653,55.292l-1.728,10.267l-0.216,5.672l-6.144,0.813l1.176-13.314l-6.264,0.383l-0.864,12.117
		l-5.712,0.814l0.936-8.792l-3.432-7.114h5.352L55.653,55.292z"/>
	<path fill="#2981BA" d="M74.517,59.498l-1.536,8.492V71.3l-5.472,0.84l0.312-2.928c-0.353,0.208-0.668,0.397-0.948,0.565
		c-0.28,0.168-0.548,0.309-0.804,0.421l-0.432,0.216l-0.432,0.216l-0.384,0.192l-1.632,0.674l-1.68,0.433l-2.736-2.397l0.408-4.074
		l-2.904-4.65l3.288-0.264l2.448-1.294l2.28,2.012l-0.528,5.725l1.824,1.869l2.376-2.616l0.912-5.832L74.517,59.498z"/>
	<path fill="#2981BA" d="M92.277,63.169l2.328-2.28l3.816-1.104c0.224,0.128,0.432,0.264,0.624,0.408
		c0.128,0.096,0.296,0.24,0.504,0.432l0.72,0.72c0.336,0.384,0.583,0.744,0.744,1.08c0.128,0.336,0.192,0.688,0.192,1.056
		c0,0.208-0.008,0.432-0.024,0.672c-0.016,0.24-0.048,0.513-0.096,0.816l-0.48,2.976l-0.264,1.632l-0.024,0.144l-0.024,0.168
		l-0.072,0.264c-0.624,0.544-1.248,0.977-1.872,1.296l-2.664,1.08l-1.2,0.36l0.408-0.864l0.312-1.152
		c0.448-1.856,0.672-3.472,0.672-4.848l-0.024-0.72l-1.656-1.608l-0.816,1.104c-0.144,0.224-0.336,0.608-0.576,1.152
		c-0.144,0.336-0.288,0.664-0.432,0.984l-0.576,4.368l-5.256,0.72l0.864-4.824v-2.472l-1.632-1.344
		c-0.256,0.272-0.472,0.52-0.648,0.744c-0.176,0.225-0.336,0.448-0.48,0.672c-0.336,0.528-0.672,1.2-1.008,2.016l-0.432,4.488
		l-5.304,0.72l0.624-6.339l-3.072-4.466l3.504-0.672l2.208-1.297l2.208,1.803l0.12,2.091l1.8-2.064l4.536-1.44l2.304,2.04
		L92.277,63.169z"/>
	<path fill="#2981BA" d="M109.029,66.337c0.832-0.208,1.436-0.468,1.812-0.78s0.564-0.7,0.564-1.164c0-0.48-0.192-0.928-0.576-1.344
		c-0.192-0.208-0.436-0.412-0.732-0.612c-0.296-0.2-0.676-0.404-1.14-0.612c-0.16,0.384-0.28,0.832-0.36,1.344
		c-0.144,0.864-0.216,1.576-0.216,2.136c0,0.816,0.104,1.432,0.312,1.848c0.096,0.225,0.224,0.412,0.384,0.564
		c0.16,0.152,0.375,0.285,0.648,0.396c0.496,0.176,1.167,0.264,2.016,0.264c0.592,0,1.22-0.056,1.884-0.168
		c0.664-0.112,1.484-0.352,2.46-0.72l-2.16,3.888l-0.504,0.144c-0.24,0.064-0.464,0.116-0.672,0.156
		c-0.208,0.04-0.616,0.1-1.224,0.18s-1.152,0.12-1.632,0.12c-1.056,0-2.148-0.164-3.276-0.492c-1.128-0.328-2.004-0.908-2.628-1.74
		s-0.936-1.84-0.936-3.024c0-0.96,0.096-1.916,0.288-2.868c0.192-0.952,0.456-1.692,0.792-2.22c0.096-0.144,0.184-0.26,0.264-0.348
		s0.192-0.172,0.336-0.252s0.288-0.152,0.432-0.216c0.144-0.063,0.332-0.124,0.564-0.18s0.52-0.12,0.864-0.192
		c0.344-0.072,0.692-0.14,1.044-0.204l1.896-0.72c0.352-0.144,0.711-0.296,1.08-0.456c0.224-0.096,0.48-0.184,0.768-0.264
		c0.288-0.08,0.592-0.12,0.912-0.12c0.4,0,0.88,0.152,1.44,0.456c0.56,0.304,1.128,0.72,1.704,1.248
		c0.576,0.528,0.864,1.16,0.864,1.896c0,0.208-0.008,0.376-0.024,0.504s-0.048,0.312-0.096,0.552
		c-0.192,0.88-0.552,1.552-1.08,2.016c-0.928,0.752-2.32,1.128-4.176,1.128C110.429,66.481,109.797,66.434,109.029,66.337z"/>
	<path fill="#2981BA" d="M122.685,58.819l2.808,2.166v1.752l0.48-0.528c0.768-0.88,1.375-1.448,1.824-1.704
		c0.176-0.112,0.364-0.212,0.564-0.3s0.484-0.188,0.852-0.3c0.88-0.256,1.816-0.44,2.808-0.552c0.496,0.4,0.944,0.824,1.344,1.272
		c0.592,0.64,1.008,1.244,1.248,1.812c0.24,0.568,0.36,1.22,0.36,1.956c0,0.944-0.168,1.888-0.504,2.832
		c-0.336,0.944-0.816,1.776-1.44,2.496c-1.072,1.264-2.584,1.896-4.536,1.896c-0.944,0-1.984-0.136-3.12-0.408
		c0.656-0.16,1.167-0.32,1.536-0.48c0.368-0.16,0.704-0.375,1.008-0.648c0.528-0.432,0.976-1.088,1.344-1.968
		s0.552-1.704,0.552-2.472c0-0.208-0.024-0.424-0.072-0.648c-0.048-0.224-0.108-0.436-0.18-0.636
		c-0.072-0.2-0.144-0.364-0.216-0.492c-0.072-0.128-0.18-0.288-0.324-0.48c-0.192-0.208-0.568-0.544-1.128-1.008
		c-0.528,0.64-0.912,1.176-1.152,1.608c-0.128,0.24-0.264,0.516-0.408,0.828s-0.28,0.645-0.408,0.996
		c-0.464,1.216-0.768,2.544-0.912,3.984l-0.624,6.667l-5.376,0.814l1.128-11.816l-2.88-3.979l3.144-1.031L122.685,58.819z"/>
	<path fill="#2981BA" d="M189.885,71.425h-4.128h-7.656l-2.16,0.144l-0.12,2.256c0,0.816,0.08,1.568,0.24,2.256l0.144,0.551
		l0.049,0.24l0.144,0.672c-0.491,0-0.915-0.027-1.271-0.084s-0.744-0.137-1.164-0.24c-0.419-0.105-0.791-0.206-1.116-0.303
		c-0.324-0.097-0.701-0.232-1.128-0.41l-0.072-1.254l0.072-3.161c0-0.595,0.023-1.106,0.071-1.532
		c0.049-0.426,0.136-1.122,0.265-2.087c0.688,0.16,1.248,0.24,1.68,0.24c0.16,0,0.296-0.008,0.408-0.024
		c0.111-0.016,0.264-0.04,0.456-0.072l0.479-0.216c0.272-0.192,0.448-0.336,0.528-0.432l0.504-0.888l4.08-7.632l-2.76-3.312h5.352
		l4.08-0.846l3.72,11.672c0.225,0.655,0.473,1.095,0.744,1.318c0.256,0.256,0.64,0.384,1.152,0.384l0.936-0.072
		c0.433-0.048,0.88-0.16,1.345-0.336l-0.696,3.36v4.896c-0.752,0.304-1.48,0.527-2.184,0.672c-0.433,0.096-0.856,0.18-1.272,0.252
		s-0.849,0.107-1.296,0.107l0.347-1.469c0.108-0.531,0.209-1.31,0.301-2.337L189.885,71.425z M179.349,68.474h5.304l-2.328-7.584
		L179.349,68.474z"/>
	<path fill="#2981BA" d="M200.108,58.819l2.808,2.166v1.752l0.48-0.528c0.768-0.88,1.376-1.448,1.824-1.704
		c0.176-0.112,0.363-0.212,0.563-0.3s0.483-0.188,0.853-0.3c0.879-0.256,1.815-0.44,2.808-0.552c0.496,0.4,0.943,0.824,1.344,1.272
		c0.592,0.64,1.008,1.244,1.248,1.812c0.24,0.568,0.36,1.22,0.36,1.956c0,0.944-0.168,1.888-0.504,2.832
		c-0.336,0.944-0.816,1.776-1.44,2.496c-1.072,1.264-2.584,1.896-4.536,1.896c-0.944,0-1.983-0.136-3.12-0.408
		c0.656-0.16,1.168-0.32,1.536-0.48c0.368-0.16,0.704-0.375,1.008-0.648c0.528-0.432,0.977-1.088,1.345-1.968
		c0.367-0.88,0.552-1.704,0.552-2.472c0-0.208-0.024-0.424-0.072-0.648s-0.107-0.436-0.18-0.636c-0.072-0.2-0.145-0.364-0.216-0.492
		c-0.072-0.128-0.181-0.288-0.324-0.48c-0.192-0.208-0.568-0.544-1.128-1.008c-0.528,0.64-0.912,1.176-1.152,1.608
		c-0.128,0.24-0.264,0.516-0.408,0.828c-0.144,0.312-0.279,0.645-0.407,0.996c-0.465,1.216-0.769,2.544-0.912,3.984l-0.624,6.667
		l-5.376,0.814l1.128-11.816l-2.88-3.979l3.144-1.031L200.108,58.819z"/>
	<path fill="#2981BA" d="M229.364,59.516l-1.128,7.334l0.24,4.473l-5.353,0.721l0.288-3.642l-0.312,0.312l-0.288,0.264
		c-0.96,0.816-1.96,1.448-3,1.896c-0.353,0.144-0.641,0.252-0.864,0.324c-0.225,0.072-0.521,0.148-0.888,0.228l-1.393,0.24
		l-2.184,0.192c-0.064-0.464-0.124-0.888-0.18-1.272c-0.057-0.384-0.084-0.72-0.084-1.008l-0.097-2.28
		c0-1.344,0.181-2.479,0.54-3.408c0.36-0.928,0.9-1.688,1.62-2.28c0.72-0.592,1.652-1.032,2.796-1.32s2.517-0.432,4.116-0.432
		l0.937,0.024c-0.961,0.256-1.717,0.508-2.269,0.756s-1.044,0.588-1.476,1.02c-0.96,0.944-1.44,2.456-1.44,4.536l0.024,1.056
		c0.016,0.24,0.048,0.512,0.096,0.816c0.048,0.304,0.104,0.608,0.168,0.912c1.664-0.8,2.896-1.985,3.696-3.554
		c0.336-0.672,0.576-1.353,0.72-2.041c0.063-0.369,0.111-0.769,0.144-1.201c0.032-0.433,0.049-0.961,0.049-1.585v-0.144
		L229.364,59.516z"/>
	<path fill="#2981BA" d="M248.804,59.498l-1.535,8.492V71.3l-5.473,0.84l0.336-2.928c-0.32,0.208-0.575,0.365-0.768,0.469
		c-0.192,0.104-0.521,0.277-0.984,0.517l-1.271,0.625l-1.608,0.674l-1.704,0.433l-2.735-2.4l0.407-4.08l-2.88-4.656l3.265-0.264
		l2.472-1.296l2.256,2.016l-0.504,5.736l1.824,1.872l2.352-2.616l0.912-5.832L248.804,59.498z M239.876,52.748l1.944,1.524
		c0.64,0.508,1.304,0.762,1.992,0.762c0.592,0,1.304-0.256,2.136-0.768l1.032-0.624c0.56-0.32,1.096-0.48,1.607-0.48
		c0.16,0,0.344,0.04,0.553,0.12l-0.696,0.744c-0.433,0.48-0.752,0.824-0.96,1.032c-0.4,0.416-0.792,0.796-1.176,1.14
		c-0.385,0.344-0.876,0.636-1.477,0.876c-0.6,0.24-1.148,0.36-1.644,0.36l-1.32-0.12c-0.912-0.096-1.712-0.296-2.4-0.6l-2.76-1.224
		L239.876,52.748z"/>
	<path fill="#2981BA" d="M259.052,72.122c-1.761-0.24-3.145-0.536-4.152-0.888c-2.88-1.008-4.32-2.76-4.32-5.256
		c0-0.672,0.068-1.528,0.204-2.568s0.324-2.168,0.564-3.384c0.111-0.528,0.228-1.032,0.348-1.512s0.252-0.96,0.396-1.44
		c0.144-0.48,0.336-0.816,0.575-1.008c0.208-0.208,0.648-0.424,1.32-0.648l0.432-0.168l0.576-0.192l0.696-0.288l0.672-0.264
		l2.664-1.464c0.768,0.288,1.18,0.44,1.236,0.456c0.056,0.016,0.195,0.088,0.42,0.216c0.128,0.064,0.34,0.184,0.636,0.36
		s0.58,0.352,0.853,0.528c0.911,0.576,1.584,1.172,2.016,1.788c0.432,0.616,0.647,1.268,0.647,1.956c0,0.4-0.096,0.816-0.287,1.248
		c-0.081,0.144-0.16,0.272-0.24,0.384c-0.16,0.208-0.345,0.392-0.552,0.552c-0.16,0.096-0.433,0.225-0.816,0.384
		c-0.384,0.16-0.824,0.32-1.32,0.48l2.16,0.264c0.464,0.096,0.896,0.256,1.296,0.48c0.944,0.512,1.416,1.392,1.416,2.64
		c0,0.768-0.168,1.464-0.504,2.088c-0.24,0.432-0.6,0.84-1.08,1.224c-0.416,0.336-1.12,0.768-2.112,1.296l-1.8,1.032
		c-0.176,0.112-0.348,0.228-0.516,0.348s-0.316,0.236-0.444,0.348s-0.272,0.252-0.432,0.42
		C259.443,71.702,259.259,71.897,259.052,72.122z M257.107,56.425l-0.48,1.15c-0.304,0.814-0.552,1.781-0.743,2.899
		c-0.192,1.118-0.288,2.188-0.288,3.209c0,0.99,0.144,1.8,0.432,2.431s0.744,1.146,1.368,1.545c0.271,0.176,0.544,0.328,0.815,0.456
		c0.272,0.127,0.592,0.255,0.961,0.383c0.367,0.128,0.68,0.224,0.936,0.288c0.08,0.016,0.279,0.056,0.6,0.12
		c0.192-0.56,0.313-0.988,0.36-1.284c0.048-0.296,0.072-0.684,0.072-1.164c0-1.264-0.368-2.168-1.104-2.712
		c-0.352-0.288-0.792-0.504-1.319-0.648c-0.288-0.08-0.648-0.148-1.08-0.204c-0.433-0.056-0.881-0.084-1.345-0.084l0.841-1.68h0.359
		c2.16,0,3.24-0.628,3.24-1.886c0-0.43-0.112-0.808-0.336-1.134c-0.225-0.326-0.584-0.621-1.08-0.883S258.083,56.696,257.107,56.425
		z"/>
</g>
<g>
	<path fill="#C03B2A" d="M87.101,87.532c0.583-0.559,1.282-0.838,2.095-0.838c0.845,0,1.565,0.298,2.159,0.895
		c0.594,0.596,0.892,1.318,0.892,2.167c0,0.838-0.296,1.556-0.889,2.154c-0.592,0.598-1.313,0.896-2.162,0.896
		c-0.841,0-1.56-0.301-2.154-0.902c-0.534-0.526-0.853-1.126-0.959-1.799c-0.105-0.674-0.158-1.286-0.158-1.838
		c0-1.124,0.271-2.049,0.811-2.776c0.68-0.921,1.479-1.38,2.396-1.38c0.19,0,0.381,0.02,0.575,0.059
		c0.44,0.09,0.793,0.135,1.058,0.135c0.583,0,0.913-0.083,0.988-0.248v0.919c-0.193,0.286-0.512,0.43-0.956,0.43
		c-0.293,0-0.675-0.05-1.144-0.15c-0.154-0.032-0.299-0.048-0.435-0.048c-0.63,0-1.171,0.334-1.622,1.004
		C87.344,86.58,87.179,87.02,87.101,87.532z M87.283,89.756c0,0.526,0.186,0.976,0.559,1.348c0.373,0.373,0.824,0.559,1.354,0.559
		c0.526,0,0.977-0.186,1.351-0.559c0.374-0.372,0.561-0.821,0.561-1.348c0-0.529-0.187-0.982-0.561-1.359
		c-0.375-0.375-0.825-0.563-1.351-0.563c-0.53,0-0.981,0.188-1.354,0.563C87.469,88.773,87.283,89.227,87.283,89.756z"/>
	<path fill="#C03B2A" d="M93.229,87.141h1.112v3.447l2.61-3.447h0.972v5.526h-1.106V89.17l-2.476,3.266v0.231h-1.112V87.141z"/>
	<path fill="#C03B2A" d="M102.091,89.885c0.63,0.161,0.945,0.533,0.945,1.117c0,0.477-0.208,0.873-0.626,1.192
		c-0.417,0.319-0.905,0.478-1.463,0.478c-0.562,0-1.052-0.158-1.469-0.478c-0.417-0.319-0.625-0.716-0.625-1.192v-0.381h1.144v0.381
		c0,0.161,0.088,0.309,0.263,0.44s0.405,0.198,0.688,0.198c0.279,0,0.507-0.066,0.682-0.198s0.263-0.279,0.263-0.44
		c0-0.158-0.079-0.297-0.236-0.419c-0.115-0.083-0.229-0.175-0.344-0.279h-1.251v-0.892h1.386c0.057-0.097,0.125-0.174,0.204-0.23
		c0.161-0.122,0.242-0.262,0.242-0.42c0-0.157-0.088-0.303-0.263-0.435s-0.403-0.198-0.682-0.198c-0.283,0-0.519,0.069-0.709,0.209
		c-0.143,0.111-0.236,0.33-0.279,0.655h-1.133c0.061-0.663,0.285-1.142,0.671-1.439c0.405-0.304,0.888-0.456,1.45-0.456
		c0.559,0,1.046,0.158,1.463,0.475c0.417,0.317,0.626,0.714,0.626,1.189C103.037,89.346,102.722,89.721,102.091,89.885z"/>
	<path fill="#C03B2A" d="M108.751,92.667h-1.106v-2.411h-2.578v2.411h-1.112v-5.526h1.112v1.998h2.578v-1.998h1.106V92.667z"/>
	<path fill="#C03B2A" d="M111.759,91.416c0.186,0.164,0.524,0.246,1.015,0.246c0.53,0,0.983-0.186,1.359-0.559
		c0.046-0.05,0.142-0.16,0.285-0.332l1.112,0.396c-0.272,0.377-0.469,0.625-0.591,0.747c-0.598,0.599-1.319,0.897-2.165,0.897
		c-0.841,0-1.561-0.299-2.159-0.897s-0.897-1.319-0.897-2.165c0-0.845,0.299-1.566,0.897-2.164s1.318-0.896,2.159-0.896
		c0.723,0,1.357,0.218,1.901,0.654c0.089,0.076,0.177,0.156,0.263,0.242c0.036,0.035,0.138,0.148,0.306,0.338l-0.559,0.564
		L111.759,91.416z M113.618,87.979c-0.125-0.098-0.406-0.146-0.843-0.146c-0.526,0-0.977,0.187-1.351,0.562
		c-0.374,0.374-0.561,0.826-0.561,1.355c0,0.434,0.048,0.715,0.145,0.844L113.618,87.979z"/>
	<path fill="#C03B2A" d="M121.196,90.771l1.112,0.396c-0.272,0.377-0.469,0.625-0.591,0.747c-0.598,0.599-1.319,0.897-2.165,0.897
		c-0.841,0-1.561-0.299-2.159-0.897s-0.897-1.319-0.897-2.165c0-0.845,0.299-1.566,0.897-2.164s1.318-0.896,2.159-0.896
		c0.845,0,1.566,0.299,2.165,0.896c0.122,0.121,0.319,0.367,0.591,0.736l-1.112,0.408c-0.143-0.176-0.24-0.289-0.29-0.339
		c-0.373-0.372-0.824-0.559-1.354-0.559c-0.526,0-0.977,0.187-1.351,0.562c-0.374,0.374-0.561,0.826-0.561,1.355
		c0,0.527,0.187,0.977,0.561,1.352c0.375,0.374,0.825,0.561,1.351,0.561c0.53,0,0.983-0.186,1.359-0.559
		C120.958,91.054,121.053,90.943,121.196,90.771z"/>
	<path fill="#C03B2A" d="M131.879,92.667h-1.106v-2.411h-2.578v2.411h-1.112v-5.526h1.112v1.998h2.578v-1.998h1.106V92.667z"/>
	<path fill="#C03B2A" d="M137.959,87.527v-0.387h1.117v5.531h-1.117v-0.692c-0.537,0.556-1.16,0.833-1.869,0.833
		c-0.845,0-1.565-0.299-2.162-0.895c-0.596-0.597-0.894-1.316-0.894-2.162s0.298-1.565,0.894-2.162
		c0.597-0.596,1.317-0.895,2.162-0.895C136.799,86.699,137.422,86.976,137.959,87.527z M137.959,90.164v-0.816
		c-0.064-0.348-0.236-0.662-0.516-0.945c-0.376-0.373-0.827-0.559-1.354-0.559c-0.53,0-0.982,0.186-1.356,0.559
		c-0.374,0.373-0.561,0.824-0.561,1.354c0,0.526,0.187,0.977,0.561,1.351c0.375,0.374,0.827,0.562,1.356,0.562
		c0.526,0,0.978-0.186,1.354-0.559C137.723,90.826,137.895,90.512,137.959,90.164z"/>
	<path fill="#C03B2A" d="M149.287,87.527v-0.387h1.117v5.531h-1.117v-0.692c-0.537,0.556-1.16,0.833-1.869,0.833
		c-0.845,0-1.565-0.299-2.162-0.895c-0.596-0.597-0.894-1.316-0.894-2.162s0.298-1.565,0.894-2.162
		c0.597-0.596,1.317-0.895,2.162-0.895C148.127,86.699,148.75,86.976,149.287,87.527z M149.287,90.164v-0.816
		c-0.064-0.348-0.236-0.662-0.516-0.945c-0.376-0.373-0.827-0.559-1.354-0.559c-0.53,0-0.982,0.186-1.356,0.559
		c-0.374,0.373-0.561,0.824-0.561,1.354c0,0.526,0.187,0.977,0.561,1.351c0.375,0.374,0.827,0.562,1.356,0.562
		c0.526,0,0.978-0.186,1.354-0.559C149.051,90.826,149.223,90.512,149.287,90.164z"/>
	<path fill="#C03B2A" d="M154.819,88.258v4.409h-1.106v-4.409h-2.009v-1.117h5.124v1.117H154.819z"/>
	<path fill="#C03B2A" d="M160.916,88.258v4.409h-1.107v-4.409h-2.008v-1.117h5.123v1.117H160.916z"/>
	<path fill="#C03B2A" d="M165.325,91.979v2.546h-1.112v-7.385h1.112v0.499c0.537-0.63,1.162-0.945,1.874-0.945
		c0.846,0,1.566,0.298,2.162,0.895c0.596,0.596,0.895,1.316,0.895,2.161c0,0.846-0.299,1.566-0.895,2.165s-1.316,0.897-2.162,0.897
		C166.487,92.813,165.862,92.535,165.325,91.979z M165.325,89.32v0.865c0.067,0.34,0.241,0.648,0.521,0.924
		c0.373,0.373,0.824,0.559,1.354,0.559c0.53,0,0.982-0.188,1.357-0.562c0.373-0.374,0.561-0.826,0.561-1.356
		c0-0.525-0.188-0.977-0.561-1.354c-0.375-0.375-0.827-0.563-1.357-0.563c-0.529,0-0.98,0.188-1.354,0.563
		C165.566,88.673,165.393,88.98,165.325,89.32z"/>
	<path fill="#C03B2A" d="M176.39,87.527v-0.387h1.117v5.531h-1.117v-0.692c-0.537,0.556-1.16,0.833-1.869,0.833
		c-0.845,0-1.565-0.299-2.162-0.895c-0.596-0.597-0.894-1.316-0.894-2.162s0.298-1.565,0.894-2.162
		c0.597-0.596,1.317-0.895,2.162-0.895C175.229,86.699,175.853,86.976,176.39,87.527z M176.39,90.164v-0.816
		c-0.064-0.348-0.236-0.662-0.516-0.945c-0.376-0.373-0.827-0.559-1.354-0.559c-0.53,0-0.981,0.186-1.356,0.559
		c-0.374,0.373-0.561,0.824-0.561,1.354c0,0.526,0.187,0.977,0.561,1.351c0.375,0.374,0.826,0.562,1.356,0.562
		c0.526,0,0.978-0.186,1.354-0.559C176.153,90.826,176.325,90.512,176.39,90.164z"/>
	<path fill="#C03B2A" d="M182.889,87.141l-1.498,1.848l2.084,3.679h-1.322l-1.52-2.782l-0.591,0.655v2.127h-1.117v-5.526h1.117
		v1.654l1.423-1.654H182.889z"/>
	<path fill="#C03B2A" d="M188.094,92.667h-4.082v-5.532h1.111v4.415h2.578v-4.415h1.106v4.377h0.392v3.008h-1.105V92.667z"/>
	<path fill="#C03B2A" d="M190.005,87.141h1.112v3.447l2.609-3.447h0.973v5.526h-1.106V89.17l-2.476,3.266v0.231h-1.112V87.141z"/>
	<path fill="#C03B2A" d="M198.787,86.689c0.846,0,1.566,0.299,2.162,0.896c0.597,0.598,0.895,1.319,0.895,2.164
		c0,0.846-0.298,1.566-0.895,2.165c-0.596,0.599-1.316,0.897-2.162,0.897c-0.841,0-1.561-0.299-2.158-0.897
		c-0.599-0.599-0.897-1.319-0.897-2.165c0-0.845,0.299-1.566,0.897-2.164C197.227,86.988,197.946,86.689,198.787,86.689z
		 M197.432,88.396c-0.374,0.377-0.562,0.828-0.562,1.354c0,0.53,0.188,0.981,0.562,1.354c0.374,0.373,0.826,0.559,1.355,0.559
		c0.53,0,0.982-0.186,1.356-0.559c0.374-0.372,0.562-0.823,0.562-1.354c0-0.525-0.188-0.977-0.562-1.354
		c-0.374-0.375-0.826-0.563-1.356-0.563C198.258,87.833,197.806,88.021,197.432,88.396z"/>
	<path fill="#C03B2A" d="M207.611,92.667h-1.106v-2.411h-2.578v2.411h-1.112v-5.526h1.112v1.998h2.578v-1.998h1.106V92.667z"/>
	<path fill="#C03B2A" d="M213.692,87.527v-0.387h1.117v5.531h-1.117v-0.692c-0.537,0.556-1.16,0.833-1.869,0.833
		c-0.845,0-1.565-0.299-2.162-0.895c-0.596-0.597-0.894-1.316-0.894-2.162s0.298-1.565,0.894-2.162
		c0.597-0.596,1.317-0.895,2.162-0.895C212.532,86.699,213.155,86.976,213.692,87.527z M213.692,90.164v-0.816
		c-0.064-0.348-0.236-0.662-0.516-0.945c-0.376-0.373-0.827-0.559-1.354-0.559c-0.53,0-0.982,0.186-1.356,0.559
		s-0.561,0.824-0.561,1.354c0,0.526,0.187,0.977,0.561,1.351s0.826,0.562,1.356,0.562c0.526,0,0.978-0.186,1.354-0.559
		C213.456,90.826,213.628,90.512,213.692,90.164z"/>
	<path fill="#C03B2A" d="M220.486,87.141l-1.461,2.523l1.729,3.003h-1.283l-1.08-1.858l-1.074,1.858h-1.295l1.735-3.003
		l-1.456-2.523h1.284l0.806,1.38l0.801-1.38H220.486z"/>
</g>
<polygon fill="#C03B2A" points="138.722,67.18 147.413,65.988 150.16,59.922 153.481,67.819 157.142,56.259 160.902,66.282 
	168.24,67.286 159.774,67.533 157.371,61.867 153.823,72.741 150.16,64.5 148.329,67.59 "/>
<g>
</g>
<g>
</g>
<g>
</g>
<g>
</g>
<g>
</g>
<g>
</g>
</svg>
