<?xml version="1.0" encoding="utf-8"?>
<!-- Generator: Adobe Illustrator 16.0.0, SVG Export Plug-In . SVG Version: 6.00 Build 0)  -->
<!DOCTYPE svg PUBLIC "-//W3C//DTD SVG 1.1//EN" "http://www.w3.org/Graphics/SVG/1.1/DTD/svg11.dtd">
<svg version="1.1" id="Layer_1" xmlns="http://www.w3.org/2000/svg" xmlns:xlink="http://www.w3.org/1999/xlink" x="0px" y="0px"
	 width="306.334px" height="65.333px" viewBox="0 0 306.334 65.333" enable-background="new 0 0 306.334 65.333"
	 xml:space="preserve">
<g>
	<g>
		<path fill="#2981BA" d="M33.837,10.345l-2.181,12.958l-0.272,7.158l-7.754,1.027l1.484-16.803l-7.906,0.484l-1.09,15.292
			l-7.209,1.027l1.182-11.095l-4.332-8.979h6.754L33.837,10.345z"/>
		<path fill="#2981BA" d="M57.644,15.654l-1.938,10.717v4.178l-6.906,1.06l0.394-3.695c-0.444,0.263-0.843,0.501-1.197,0.714
			s-0.692,0.39-1.015,0.531l-0.545,0.273l-0.545,0.273l-0.484,0.243l-2.06,0.85l-2.12,0.546l-3.453-3.024l0.515-5.142l-3.665-5.868
			l4.15-0.333l3.089-1.633l2.877,2.54l-0.667,7.225l2.302,2.358l2.999-3.301l1.151-7.36L57.644,15.654z"/>
		<path fill="#2981BA" d="M80.058,20.288l2.938-2.877l4.816-1.393c0.283,0.162,0.545,0.333,0.788,0.515
			c0.162,0.122,0.374,0.303,0.636,0.545l0.909,0.909c0.424,0.485,0.737,0.939,0.939,1.363c0.161,0.424,0.242,0.869,0.242,1.333
			c0,0.263-0.01,0.545-0.03,0.848c-0.021,0.303-0.061,0.646-0.121,1.03l-0.606,3.756l-0.333,2.06l-0.03,0.182l-0.03,0.212
			l-0.091,0.333c-0.788,0.687-1.575,1.232-2.363,1.636l-3.362,1.363l-1.515,0.455l0.515-1.091l0.394-1.454
			c0.565-2.342,0.848-4.381,0.848-6.119l-0.03-0.909l-2.09-2.029l-1.03,1.394c-0.182,0.283-0.424,0.768-0.727,1.454
			c-0.182,0.424-0.364,0.838-0.545,1.242l-0.727,5.513l-6.633,0.908l1.09-6.088v-3.12l-2.06-1.696
			c-0.323,0.343-0.596,0.656-0.818,0.939s-0.424,0.565-0.605,0.848c-0.424,0.666-0.848,1.514-1.272,2.544l-0.545,5.665l-6.694,0.908
			l0.788-8l-3.877-5.637l4.422-0.848l2.787-1.636l2.787,2.275l0.151,2.639l2.271-2.604l5.725-1.817l2.908,2.574L80.058,20.288z"/>
		<path fill="#2981BA" d="M101.2,24.286c1.05-0.262,1.813-0.591,2.287-0.984c0.474-0.394,0.712-0.883,0.712-1.469
			c0-0.606-0.243-1.171-0.727-1.696c-0.243-0.262-0.551-0.52-0.924-0.772c-0.374-0.252-0.854-0.509-1.439-0.772
			c-0.202,0.484-0.354,1.05-0.454,1.696c-0.182,1.091-0.273,1.989-0.273,2.696c0,1.03,0.131,1.808,0.394,2.333
			c0.121,0.283,0.282,0.52,0.484,0.712c0.202,0.192,0.475,0.358,0.818,0.5c0.626,0.223,1.474,0.333,2.544,0.333
			c0.747,0,1.54-0.071,2.378-0.212c0.837-0.141,1.873-0.444,3.104-0.909l-2.726,4.907l-0.636,0.182
			c-0.303,0.081-0.586,0.146-0.848,0.197c-0.263,0.05-0.777,0.126-1.544,0.227c-0.768,0.101-1.454,0.151-2.06,0.151
			c-1.333,0-2.71-0.207-4.134-0.621c-1.423-0.414-2.529-1.146-3.317-2.196c-0.787-1.049-1.181-2.322-1.181-3.816
			c0-1.211,0.121-2.418,0.364-3.62c0.242-1.201,0.575-2.135,1-2.802c0.121-0.182,0.232-0.328,0.333-0.439
			c0.101-0.111,0.242-0.217,0.424-0.318c0.182-0.101,0.364-0.192,0.545-0.273c0.182-0.08,0.419-0.156,0.712-0.227
			c0.292-0.07,0.656-0.151,1.09-0.242c0.434-0.091,0.873-0.177,1.317-0.257l2.393-0.909c0.444-0.182,0.898-0.374,1.363-0.576
			c0.283-0.121,0.606-0.232,0.969-0.333c0.364-0.101,0.747-0.152,1.151-0.152c0.504,0,1.11,0.192,1.817,0.576
			c0.707,0.384,1.423,0.909,2.15,1.575c0.727,0.666,1.09,1.464,1.09,2.393c0,0.263-0.01,0.475-0.03,0.636
			c-0.021,0.162-0.061,0.394-0.121,0.697c-0.242,1.111-0.697,1.958-1.363,2.544c-1.171,0.95-2.928,1.424-5.271,1.424
			C102.967,24.468,102.169,24.407,101.2,24.286z"/>
		<path fill="#2981BA" d="M118.434,14.798l3.544,2.734v2.211l0.606-0.667c0.969-1.11,1.736-1.827,2.302-2.15
			c0.222-0.141,0.459-0.268,0.712-0.379c0.252-0.11,0.61-0.237,1.075-0.378c1.11-0.323,2.292-0.555,3.544-0.697
			c0.626,0.505,1.191,1.041,1.696,1.605c0.747,0.808,1.272,1.57,1.575,2.287c0.303,0.717,0.454,1.54,0.454,2.469
			c0,1.192-0.212,2.383-0.636,3.574c-0.425,1.192-1.03,2.241-1.817,3.15c-1.354,1.596-3.262,2.393-5.725,2.393
			c-1.192,0-2.504-0.171-3.938-0.515c0.828-0.202,1.474-0.403,1.939-0.605c0.464-0.202,0.888-0.474,1.271-0.818
			c0.667-0.545,1.231-1.373,1.696-2.484c0.465-1.11,0.697-2.15,0.697-3.12c0-0.262-0.03-0.535-0.091-0.818
			c-0.062-0.283-0.137-0.55-0.228-0.803c-0.091-0.252-0.182-0.459-0.272-0.621c-0.091-0.161-0.228-0.363-0.409-0.605
			c-0.242-0.262-0.717-0.687-1.424-1.272c-0.666,0.808-1.15,1.484-1.454,2.03c-0.162,0.303-0.333,0.651-0.515,1.045
			c-0.182,0.394-0.354,0.813-0.515,1.257c-0.586,1.535-0.969,3.211-1.151,5.028l-0.788,8.414L113.8,38.09l1.424-14.913l-3.635-5.021
			l3.968-1.301L118.434,14.798z"/>
		<path fill="#2981BA" d="M203.243,30.708h-5.21h-9.662l-2.726,0.182l-0.151,2.847c0,1.03,0.101,1.979,0.303,2.847l0.182,0.697
			l0.061,0.303l0.182,0.848c-0.62,0-1.154-0.036-1.604-0.106c-0.449-0.071-0.939-0.173-1.469-0.304
			c-0.529-0.133-0.999-0.26-1.409-0.381c-0.41-0.122-0.885-0.294-1.424-0.518l-0.091-1.583l0.091-3.989
			c0-0.751,0.03-1.396,0.091-1.934c0.061-0.538,0.171-1.416,0.333-2.634c0.868,0.202,1.575,0.303,2.12,0.303
			c0.202,0,0.374-0.01,0.516-0.03c0.141-0.02,0.333-0.05,0.575-0.091l0.605-0.272c0.344-0.243,0.565-0.424,0.667-0.545l0.636-1.121
			l5.149-9.632l-3.483-4.18h6.754l5.149-1.068l4.695,14.731c0.282,0.828,0.595,1.382,0.938,1.664
			c0.323,0.323,0.808,0.484,1.454,0.484l1.182-0.091c0.545-0.061,1.11-0.202,1.696-0.424l-0.879,4.241v6.179
			c-0.949,0.383-1.868,0.666-2.756,0.848c-0.546,0.122-1.081,0.228-1.605,0.318c-0.525,0.091-1.07,0.136-1.636,0.136l0.438-1.855
			c0.136-0.669,0.263-1.652,0.379-2.95L203.243,30.708z M189.946,26.982h6.694l-2.938-9.572L189.946,26.982z"/>
		<path fill="#2981BA" d="M216.147,14.798l3.544,2.734v2.211l0.605-0.667c0.969-1.11,1.736-1.827,2.302-2.15
			c0.222-0.141,0.459-0.268,0.712-0.379c0.252-0.11,0.61-0.237,1.075-0.378c1.11-0.323,2.292-0.555,3.544-0.697
			c0.626,0.505,1.191,1.041,1.696,1.605c0.747,0.808,1.272,1.57,1.575,2.287c0.303,0.717,0.454,1.54,0.454,2.469
			c0,1.192-0.212,2.383-0.636,3.574c-0.425,1.192-1.03,2.241-1.817,3.15c-1.354,1.596-3.262,2.393-5.725,2.393
			c-1.192,0-2.505-0.171-3.938-0.515c0.827-0.202,1.474-0.403,1.938-0.605c0.464-0.202,0.888-0.474,1.271-0.818
			c0.667-0.545,1.231-1.373,1.696-2.484c0.465-1.11,0.697-2.15,0.697-3.12c0-0.262-0.03-0.535-0.091-0.818
			c-0.062-0.283-0.137-0.55-0.228-0.803c-0.091-0.252-0.182-0.459-0.272-0.621c-0.091-0.161-0.228-0.363-0.409-0.605
			c-0.242-0.262-0.717-0.687-1.424-1.272c-0.666,0.808-1.15,1.484-1.454,2.03c-0.161,0.303-0.333,0.651-0.515,1.045
			c-0.182,0.394-0.354,0.813-0.515,1.257c-0.586,1.535-0.97,3.211-1.151,5.028l-0.787,8.414l-6.785,1.029l1.424-14.913l-3.635-5.021
			l3.968-1.301L216.147,14.798z"/>
		<path fill="#2981BA" d="M253.069,15.676l-1.424,9.256l0.303,5.645l-6.754,0.911l0.363-4.596l-0.394,0.394l-0.364,0.333
			c-1.211,1.03-2.474,1.828-3.786,2.393c-0.444,0.182-0.808,0.318-1.09,0.409c-0.283,0.091-0.656,0.187-1.121,0.288l-1.757,0.303
			l-2.756,0.242c-0.081-0.585-0.157-1.121-0.228-1.605c-0.07-0.485-0.105-0.909-0.105-1.272l-0.121-2.877
			c0-1.696,0.227-3.13,0.681-4.301c0.455-1.17,1.137-2.13,2.045-2.877c0.909-0.747,2.085-1.302,3.528-1.666
			c1.444-0.364,3.176-0.545,5.195-0.545l1.181,0.03c-1.211,0.323-2.165,0.641-2.862,0.954c-0.696,0.313-1.317,0.742-1.862,1.287
			c-1.212,1.192-1.817,3.1-1.817,5.725l0.03,1.333c0.02,0.303,0.061,0.646,0.121,1.03c0.061,0.384,0.131,0.768,0.212,1.151
			c2.1-1.01,3.654-2.505,4.665-4.485c0.424-0.849,0.727-1.707,0.908-2.576c0.08-0.465,0.141-0.97,0.182-1.516
			c0.04-0.545,0.061-1.212,0.061-2v-0.182L253.069,15.676z"/>
		<path fill="#2981BA" d="M277.604,15.654l-1.938,10.717v4.178l-6.905,1.06l0.424-3.695c-0.404,0.263-0.728,0.46-0.97,0.592
			c-0.242,0.131-0.656,0.349-1.241,0.652l-1.605,0.789l-2.029,0.85l-2.15,0.546l-3.453-3.029l0.515-5.149l-3.635-5.876l4.119-0.333
			l3.12-1.636l2.847,2.544l-0.636,7.239l2.302,2.362l2.969-3.301l1.151-7.36L277.604,15.654z M266.336,7.135l2.454,1.923
			c0.807,0.641,1.646,0.961,2.514,0.961c0.747,0,1.646-0.323,2.695-0.969l1.303-0.787c0.707-0.404,1.383-0.606,2.029-0.606
			c0.202,0,0.435,0.051,0.697,0.151l-0.879,0.939c-0.545,0.606-0.949,1.041-1.211,1.302c-0.506,0.525-1,1.005-1.484,1.439
			c-0.485,0.435-1.105,0.803-1.863,1.105c-0.757,0.303-1.449,0.455-2.074,0.455l-1.666-0.151c-1.151-0.122-2.161-0.374-3.029-0.757
			l-3.483-1.545L266.336,7.135z"/>
		<path fill="#2981BA" d="M290.536,31.586c-2.222-0.303-3.968-0.676-5.239-1.121c-3.635-1.272-5.452-3.483-5.452-6.633
			c0-0.848,0.085-1.928,0.257-3.241c0.172-1.313,0.409-2.736,0.712-4.271c0.142-0.666,0.288-1.302,0.439-1.908
			c0.151-0.605,0.318-1.211,0.5-1.817c0.182-0.605,0.424-1.03,0.727-1.272c0.263-0.262,0.817-0.535,1.666-0.818l0.545-0.212
			l0.728-0.243l0.878-0.363l0.849-0.333l3.361-1.848c0.97,0.363,1.489,0.556,1.561,0.575c0.07,0.021,0.247,0.111,0.529,0.273
			c0.162,0.081,0.43,0.232,0.803,0.454c0.374,0.223,0.732,0.444,1.075,0.667c1.151,0.727,2,1.479,2.545,2.256
			c0.545,0.778,0.817,1.601,0.817,2.469c0,0.505-0.121,1.03-0.363,1.575c-0.102,0.182-0.202,0.343-0.303,0.484
			c-0.202,0.263-0.435,0.495-0.696,0.697c-0.202,0.121-0.546,0.283-1.03,0.484c-0.484,0.202-1.04,0.404-1.666,0.606l2.727,0.333
			c0.585,0.122,1.13,0.323,1.635,0.606c1.191,0.646,1.787,1.757,1.787,3.332c0,0.969-0.212,1.848-0.636,2.635
			c-0.303,0.545-0.757,1.061-1.363,1.545c-0.525,0.424-1.413,0.969-2.665,1.636l-2.271,1.302c-0.223,0.142-0.439,0.288-0.651,0.439
			s-0.399,0.298-0.561,0.439c-0.162,0.142-0.344,0.318-0.545,0.53C291.031,31.056,290.799,31.303,290.536,31.586z M288.083,11.776
			l-0.605,1.451c-0.384,1.028-0.697,2.248-0.939,3.658c-0.242,1.411-0.363,2.761-0.363,4.051c0,1.25,0.182,2.272,0.545,3.068
			s0.939,1.446,1.727,1.95c0.344,0.222,0.687,0.414,1.03,0.575c0.343,0.162,0.747,0.323,1.211,0.484
			c0.465,0.161,0.858,0.282,1.182,0.363c0.101,0.02,0.354,0.07,0.757,0.151c0.243-0.707,0.395-1.247,0.455-1.62
			s0.091-0.863,0.091-1.469c0-1.595-0.465-2.736-1.394-3.423c-0.444-0.363-1-0.636-1.666-0.818
			c-0.363-0.101-0.817-0.186-1.363-0.257c-0.545-0.07-1.11-0.106-1.696-0.106l1.061-2.12h0.454c2.727,0,4.089-0.793,4.089-2.381
			c0-0.542-0.141-1.02-0.424-1.432c-0.283-0.412-0.737-0.783-1.362-1.115C290.243,12.455,289.314,12.118,288.083,11.776z"/>
	</g>
	<g>
		<path fill="#C03B2A" d="M73.525,51.035c0.737-0.705,1.618-1.058,2.644-1.058c1.066,0,1.975,0.377,2.725,1.129
			c0.75,0.752,1.125,1.664,1.125,2.735c0,1.058-0.374,1.964-1.122,2.718c-0.748,0.755-1.657,1.132-2.728,1.132
			c-1.062,0-1.968-0.379-2.718-1.139c-0.673-0.664-1.077-1.421-1.21-2.271s-0.2-1.622-0.2-2.318c0-1.419,0.341-2.587,1.023-3.505
			c0.859-1.161,1.867-1.741,3.023-1.741c0.239,0,0.481,0.024,0.725,0.074c0.556,0.113,1.001,0.169,1.335,0.169
			c0.737,0,1.152-0.104,1.248-0.312v1.159c-0.244,0.361-0.646,0.542-1.207,0.542c-0.371,0-0.852-0.063-1.444-0.189
			c-0.194-0.041-0.377-0.061-0.549-0.061c-0.795,0-1.478,0.422-2.047,1.268C73.833,49.833,73.625,50.388,73.525,51.035z
			 M73.756,53.841c0,0.664,0.235,1.231,0.705,1.701c0.47,0.47,1.04,0.705,1.708,0.705c0.664,0,1.232-0.235,1.705-0.705
			s0.708-1.037,0.708-1.701c0-0.669-0.236-1.24-0.708-1.715s-1.041-0.712-1.705-0.712c-0.669,0-1.238,0.237-1.708,0.712
			C73.991,52.601,73.756,53.172,73.756,53.841z"/>
		<path fill="#C03B2A" d="M81.26,50.54h1.403v4.353l3.294-4.353h1.227v6.976h-1.396v-4.413l-3.125,4.122v0.291H81.26V50.54z"/>
		<path fill="#C03B2A" d="M92.445,54.003c0.795,0.204,1.193,0.674,1.193,1.41c0,0.602-0.263,1.103-0.79,1.505
			s-1.142,0.604-1.847,0.604c-0.709,0-1.328-0.201-1.854-0.604s-0.79-0.903-0.79-1.505v-0.481h1.444v0.481
			c0,0.203,0.11,0.389,0.332,0.556c0.221,0.168,0.511,0.251,0.868,0.251c0.353,0,0.639-0.083,0.861-0.251
			c0.221-0.167,0.332-0.353,0.332-0.556c0-0.198-0.099-0.375-0.298-0.528c-0.145-0.104-0.289-0.222-0.434-0.353h-1.58v-1.125h1.749
			c0.072-0.122,0.158-0.22,0.258-0.292c0.203-0.153,0.305-0.33,0.305-0.528c0-0.199-0.111-0.382-0.332-0.55
			c-0.222-0.167-0.508-0.25-0.861-0.25c-0.357,0-0.655,0.088-0.895,0.264c-0.181,0.141-0.298,0.416-0.353,0.827h-1.43
			c0.077-0.836,0.359-1.441,0.848-1.816c0.51-0.384,1.121-0.576,1.83-0.576c0.705,0,1.321,0.2,1.847,0.6
			c0.526,0.4,0.79,0.9,0.79,1.502C93.638,53.324,93.24,53.796,92.445,54.003z"/>
		<path fill="#C03B2A" d="M100.85,57.515h-1.396v-3.044H96.2v3.044h-1.403V50.54H96.2v2.522h3.254V50.54h1.396V57.515z"/>
		<path fill="#C03B2A" d="M104.646,55.936c0.235,0.208,0.662,0.312,1.281,0.312c0.668,0,1.24-0.235,1.715-0.705
			c0.059-0.063,0.178-0.203,0.359-0.42l1.403,0.501c-0.343,0.475-0.592,0.789-0.746,0.942c-0.754,0.755-1.665,1.132-2.731,1.132
			c-1.062,0-1.971-0.377-2.725-1.132c-0.755-0.755-1.132-1.665-1.132-2.731s0.377-1.978,1.132-2.731
			c0.754-0.755,1.663-1.133,2.725-1.133c0.913,0,1.712,0.276,2.399,0.827c0.113,0.095,0.224,0.196,0.332,0.306
			c0.045,0.045,0.174,0.188,0.387,0.427l-0.705,0.712L104.646,55.936z M106.992,51.597c-0.158-0.122-0.513-0.183-1.064-0.183
			c-0.665,0-1.233,0.236-1.705,0.708c-0.472,0.473-0.708,1.043-0.708,1.712c0,0.547,0.061,0.901,0.183,1.064L106.992,51.597z"/>
		<path fill="#C03B2A" d="M116.556,55.123l1.403,0.501c-0.343,0.475-0.592,0.789-0.746,0.942c-0.754,0.755-1.665,1.132-2.731,1.132
			c-1.062,0-1.971-0.377-2.725-1.132c-0.755-0.755-1.132-1.665-1.132-2.731s0.377-1.978,1.132-2.731
			c0.754-0.755,1.663-1.133,2.725-1.133c1.066,0,1.977,0.378,2.731,1.133c0.154,0.153,0.402,0.463,0.746,0.928l-1.403,0.516
			c-0.181-0.222-0.303-0.363-0.366-0.427c-0.47-0.471-1.04-0.705-1.708-0.705c-0.665,0-1.233,0.236-1.705,0.708
			c-0.472,0.473-0.708,1.043-0.708,1.712c0,0.664,0.236,1.232,0.708,1.705c0.472,0.472,1.041,0.708,1.705,0.708
			c0.668,0,1.24-0.235,1.715-0.705C116.255,55.479,116.375,55.339,116.556,55.123z"/>
		<path fill="#C03B2A" d="M130.039,57.515h-1.396v-3.044h-3.253v3.044h-1.403V50.54h1.403v2.522h3.253V50.54h1.396V57.515z"/>
		<path fill="#C03B2A" d="M137.712,51.028V50.54h1.41v6.982h-1.41v-0.874c-0.678,0.7-1.464,1.05-2.359,1.05
			c-1.066,0-1.976-0.376-2.729-1.128c-0.752-0.753-1.128-1.662-1.128-2.729s0.376-1.977,1.128-2.729
			c0.753-0.753,1.662-1.129,2.729-1.129C136.248,49.984,137.034,50.333,137.712,51.028z M137.712,54.356v-1.03
			c-0.081-0.438-0.299-0.836-0.651-1.192c-0.474-0.471-1.043-0.705-1.708-0.705c-0.669,0-1.239,0.234-1.711,0.705
			c-0.473,0.47-0.709,1.039-0.709,1.708c0,0.664,0.236,1.232,0.709,1.705c0.472,0.472,1.042,0.708,1.711,0.708
			c0.665,0,1.234-0.235,1.708-0.705C137.413,55.193,137.631,54.794,137.712,54.356z"/>
		<path fill="#C03B2A" d="M152.009,51.028V50.54h1.41v6.982h-1.41v-0.874c-0.678,0.7-1.464,1.05-2.359,1.05
			c-1.066,0-1.976-0.376-2.729-1.128c-0.752-0.753-1.128-1.662-1.128-2.729s0.376-1.977,1.128-2.729
			c0.753-0.753,1.662-1.129,2.729-1.129C150.545,49.984,151.331,50.333,152.009,51.028z M152.009,54.356v-1.03
			c-0.081-0.438-0.299-0.836-0.651-1.192c-0.474-0.471-1.043-0.705-1.708-0.705c-0.669,0-1.239,0.234-1.711,0.705
			c-0.473,0.47-0.709,1.039-0.709,1.708c0,0.664,0.236,1.232,0.709,1.705c0.472,0.472,1.042,0.708,1.711,0.708
			c0.665,0,1.234-0.235,1.708-0.705C151.71,55.193,151.928,54.794,152.009,54.356z"/>
		<path fill="#C03B2A" d="M158.99,51.95v5.565h-1.396V51.95h-2.535v-1.41h6.467v1.41H158.99z"/>
		<path fill="#C03B2A" d="M166.685,51.95v5.565h-1.396V51.95h-2.535v-1.41h6.467v1.41H166.685z"/>
		<path fill="#C03B2A" d="M172.249,56.648v3.213h-1.403V50.54h1.403v0.631c0.678-0.795,1.467-1.193,2.366-1.193
			c1.066,0,1.976,0.377,2.728,1.129c0.753,0.752,1.129,1.662,1.129,2.729s-0.376,1.977-1.129,2.731
			c-0.752,0.755-1.661,1.132-2.728,1.132C173.716,57.698,172.927,57.348,172.249,56.648z M172.249,53.292v1.091
			c0.086,0.43,0.305,0.818,0.657,1.166c0.471,0.47,1.04,0.705,1.709,0.705c0.668,0,1.239-0.236,1.711-0.708
			c0.473-0.473,0.709-1.043,0.709-1.712c0-0.664-0.236-1.233-0.709-1.708c-0.472-0.475-1.043-0.712-1.711-0.712
			c-0.669,0-1.238,0.237-1.709,0.712C172.554,52.474,172.335,52.863,172.249,53.292z"/>
		<path fill="#C03B2A" d="M186.213,51.028V50.54h1.41v6.982h-1.41v-0.874c-0.678,0.7-1.464,1.05-2.359,1.05
			c-1.066,0-1.976-0.376-2.729-1.128c-0.752-0.753-1.128-1.662-1.128-2.729s0.376-1.977,1.128-2.729
			c0.753-0.753,1.662-1.129,2.729-1.129C184.749,49.984,185.535,50.333,186.213,51.028z M186.213,54.356v-1.03
			c-0.081-0.438-0.299-0.836-0.651-1.192c-0.474-0.471-1.043-0.705-1.708-0.705c-0.669,0-1.239,0.234-1.711,0.705
			c-0.473,0.47-0.709,1.039-0.709,1.708c0,0.664,0.236,1.232,0.709,1.705c0.472,0.472,1.042,0.708,1.711,0.708
			c0.665,0,1.234-0.235,1.708-0.705C185.914,55.193,186.132,54.794,186.213,54.356z"/>
		<path fill="#C03B2A" d="M194.415,50.54l-1.892,2.332l2.631,4.644h-1.668l-1.918-3.512l-0.746,0.827v2.685h-1.41V50.54h1.41v2.088
			l1.797-2.088H194.415z"/>
		<path fill="#C03B2A" d="M200.984,57.515h-5.152v-6.982h1.403v5.572h3.254v-5.572h1.396v5.525h0.495v3.796h-1.396V57.515z"/>
		<path fill="#C03B2A" d="M203.396,50.54h1.403v4.353l3.294-4.353h1.228v6.976h-1.396v-4.413l-3.125,4.122v0.291h-1.403V50.54z"/>
		<path fill="#C03B2A" d="M214.479,49.97c1.066,0,1.977,0.378,2.729,1.133c0.753,0.754,1.129,1.665,1.129,2.731
			s-0.376,1.977-1.129,2.731c-0.752,0.755-1.662,1.132-2.729,1.132c-1.062,0-1.97-0.377-2.725-1.132s-1.132-1.665-1.132-2.731
			s0.377-1.978,1.132-2.731C212.51,50.348,213.418,49.97,214.479,49.97z M212.769,52.126c-0.473,0.475-0.709,1.044-0.709,1.708
			c0,0.669,0.236,1.238,0.709,1.708c0.472,0.47,1.042,0.705,1.711,0.705s1.239-0.235,1.712-0.705s0.708-1.039,0.708-1.708
			c0-0.664-0.235-1.233-0.708-1.708s-1.043-0.712-1.712-0.712S213.24,51.652,212.769,52.126z"/>
		<path fill="#C03B2A" d="M225.617,57.515h-1.396v-3.044h-3.253v3.044h-1.403V50.54h1.403v2.522h3.253V50.54h1.396V57.515z"/>
		<path fill="#C03B2A" d="M233.291,51.028V50.54h1.41v6.982h-1.41v-0.874c-0.678,0.7-1.464,1.05-2.359,1.05
			c-1.066,0-1.976-0.376-2.729-1.128c-0.752-0.753-1.128-1.662-1.128-2.729s0.376-1.977,1.128-2.729
			c0.753-0.753,1.662-1.129,2.729-1.129C231.827,49.984,232.613,50.333,233.291,51.028z M233.291,54.356v-1.03
			c-0.081-0.438-0.299-0.836-0.651-1.192c-0.474-0.471-1.043-0.705-1.708-0.705c-0.669,0-1.239,0.234-1.711,0.705
			c-0.473,0.47-0.709,1.039-0.709,1.708c0,0.664,0.236,1.232,0.709,1.705c0.472,0.472,1.042,0.708,1.711,0.708
			c0.665,0,1.234-0.235,1.708-0.705C232.992,55.193,233.21,54.794,233.291,54.356z"/>
		<path fill="#C03B2A" d="M241.865,50.54l-1.844,3.187l2.183,3.789h-1.62l-1.362-2.346l-1.356,2.346h-1.633l2.189-3.789
			l-1.837-3.187h1.62l1.017,1.742l1.01-1.742H241.865z"/>
	</g>
	<polygon fill="#C03B2A" points="138.674,25.348 149.643,23.844 153.109,16.188 157.301,26.155 161.92,11.565 166.666,24.215 
		175.927,25.482 165.243,25.794 162.21,18.644 157.732,32.367 153.109,21.966 150.798,25.866 	"/>
</g>
<g>
</g>
<g>
</g>
<g>
</g>
<g>
</g>
<g>
</g>
<g>
</g>
</svg>
